<?xml version="1.0" encoding="utf-8"?>
<!-- Generator: Adobe Illustrator 23.0.1, SVG Export Plug-In . SVG Version: 6.00 Build 0)  -->
<svg version="1.1" id="Calque_1" xmlns="http://www.w3.org/2000/svg" xmlns:xlink="http://www.w3.org/1999/xlink" x="0px" y="0px"
	 viewBox="0 0 514.3 122.9" style="enable-background:new 0 0 514.3 122.9;" xml:space="preserve">
<style type="text/css">
	.st0{display:none;}
	.st1{display:inline;stroke:#FFFFFF;stroke-miterlimit:10;}
	.st2{fill-rule:evenodd;clip-rule:evenodd;fill:#2B4A79;}
	.st3{fill-rule:evenodd;clip-rule:evenodd;fill:#E27F17;}
	.st4{fill:#FFFFFF;}
</style>
<g class="st0">
	<rect x="-8.8" y="-19" class="st1" width="540.4" height="163.3"/>
</g>
<g id="Layer_1">
	<g>
		<circle class="st2" cx="452.9" cy="61.5" r="34.7"/>
		<g>
			<path class="st3" d="M452.8,0l13.6,11l17.2-2.8l6.2,16.3l16.3,6.2l-2.8,17.2l11,13.5l-11,13.5l2.8,17.2l-16.3,6.2l-6.2,16.3
				l-17.2-2.7l-13.5,11l-13.5-11l-17.2,2.8L416,98.4l-16.4-6.2l2.8-17.2l-11-13.6l11-13.5l-2.8-17.2l16.3-6.2l6.2-16.3l17.2,2.8
				L452.8,0L452.8,0z M452.8,39.5l6.4,15.5l16.7,1.2l-12.8,10.9l4,16.3l-14.2-8.8l-14.2,8.8l4-16.3l-12.9-10.8l16.7-1.3L452.8,39.5
				L452.8,39.5z M452.8,26.7c19.2,0,34.7,15.5,34.7,34.7S472,96.2,452.8,96.2s-34.7-15.6-34.7-34.8S433.7,26.7,452.8,26.7
				L452.8,26.7z"/>
		</g>
	</g>
	<g>
		<path class="st4" d="M107.4,38.1h37.1c1.2,2.1,2.2,4.3,2.8,6.7s0.9,4.6,0.9,6.5c0,4.3-0.8,7.6-2.5,9.8s-4.1,3.3-7.1,3.3h-25.9
			c-1.6,0-2.4,0.6-2.4,1.9v0.5c0,0.3,0,0.4,0.1,0.5h30.8c0.8,1.3,1.4,3,2,5c0.5,2.2,0.8,4.1,0.8,5.9c0,5.1-0.9,9.1-2.8,12h-14
			c-6.5,0-10.9,0.2-13.3,0.7c-2.3,0.5-3.8,0.9-4.3,1.3c-0.6,0.4-0.8,0.9-0.8,1.5s0.3,1.1,0.9,1.4c2.2-0.7,4.6-1.2,7-1.5
			c3.2-0.3,6.7-0.5,10.5-0.5h18.1c2.6,3.7,3.9,8.1,3.9,13.3c0,2.9-0.4,5.7-1.1,8.4c-0.7,2.7-1.8,4.8-3.3,6.4H96.6
			c-5.3,0-9.6-1.3-12.8-3.9c-3.5-2.7-5.3-6.8-5.3-12.1V44c0-2.1,2.4-3.6,7.1-4.5C90.3,38.5,97.6,38.1,107.4,38.1z"/>
		<path class="st4" d="M36.6,97.7c1.4-0.3,2.1-1,2.1-2.2s-0.4-2.5-1.1-4c-0.8-1.5-1.9-2.9-3.3-4.2c-3.8-3.4-9-5.2-15.5-5.2
			c-3.2,0-6.2,0.5-9,1.6c-3-1.5-5.3-3.9-7.1-7.1C0.9,73.4,0,69.8,0,66.1c0-9.9,4.1-17.5,12.4-22.9c7.1-4.6,15.8-6.9,26.2-6.9
			c7.7,0,14.2,0.8,19.5,2.5s9.6,3.8,12.9,6.3c1,2.8,1.5,5.8,1.5,8.8s-0.4,5.8-1.2,8.3c-0.8,2.5-2,4.5-3.5,6
			c-1.5-1.1-4.1-2.2-7.9-3.3c-3.8-1.1-7.3-1.7-10.4-1.7c-3.1,0-5.2,0.2-6.3,0.6s-1.6,1-1.6,1.8c0,0.4,0.1,0.8,0.2,1.1
			c1.5-0.4,3.4-0.6,5.8-0.6c8.4,0,15.2,2,20.5,5.9c6.2,4.7,9.3,11.8,9.3,21.2c0,8.3-3.4,15.2-10.1,20.7c-7.3,5.9-17.1,8.8-29.4,8.8
			c-6.8,0-12.7-0.5-17.6-1.5s-9.8-2.8-14.5-5.3c-3.2-4.7-4.8-9.4-4.8-14.3s1.7-8.8,5-12c3-3,7.1-4.6,11.9-4.6s8.8,1,11.8,3
			C32.8,90,35.1,93.2,36.6,97.7z"/>
		<path class="st4" d="M220.5,90l11.1,11.4c-0.8,6.7-2.9,11.8-6.3,15.5c-3.5,3.6-8.2,5.4-14.3,5.4c-4.6,0-8.6-1.1-12-3.3
			c-4.3-2.7-7.6-7.1-9.7-13.1l-2.3-6.3c-1.8,0-4.1-0.3-6.8-0.7c-0.3,0.3-0.5,0.8-0.5,1.4c0,1.2,1.7,1.8,5.2,2.1l3.7,9.3v5.5
			c-4.9,3.5-11.3,5.2-19,5.2c-5.5,0-10-1.1-13.3-3.4s-5-5.6-5-9.9V47.8c0-1.9,1.7-3.7,5.2-5.5s8-3.2,13.6-4.3s11.2-1.6,16.9-1.6
			c12.9,0,22.9,2.6,30.2,7.9c7.6,5.5,11.5,13.3,11.5,23.4c0,5.8-1.6,10.7-4.9,14.8c-3.2,4.1-7.3,6.9-12.3,8.5c0,1.4,0.8,2.1,2.5,2.1
			S217.9,92,220.5,90z M187.3,75.3c0.2,0.1,0.7,0.2,1.5,0.2s1.4-0.3,1.9-1c0.4-0.6,0.6-1.7,0.6-3.2V69c0-1.5-0.2-2.6-0.5-3.3
			c-0.4-0.7-1-1-1.8-1s-1.4,0.1-1.7,0.3c0,0.2,0.1,0.6,0.1,1.1v9.2H187.3z"/>
		<path class="st4" d="M268.6,49.7v66.5c-2,1.7-4.6,3.2-7.9,4.3c-3.3,1.2-7.3,1.7-12,1.7s-8.7-1.1-12-3.2c-3.7-2.3-5.6-5.5-5.6-9.7
			V42.9c2-1.7,4.6-3.2,7.9-4.3c3.3-1.2,7.3-1.7,12-1.7s8.7,1,12.2,3.1C266.8,42.3,268.6,45.6,268.6,49.7z"/>
		<path class="st4" d="M300.4,38.1h37.1c1.2,2.1,2.2,4.3,2.8,6.7c0.6,2.4,0.9,4.6,0.9,6.5c0,4.3-0.8,7.6-2.5,9.8s-4.1,3.3-7.1,3.3
			h-25.9c-1.6,0-2.4,0.6-2.4,1.9v0.5c0,0.3,0,0.4,0.1,0.5h30.8c0.8,1.3,1.4,3,2,5c0.5,2.2,0.8,4.1,0.8,5.9c0,5.1-0.9,9.1-2.8,12h-14
			c-6.5,0-10.9,0.2-13.3,0.7c-2.3,0.5-3.8,0.9-4.3,1.3c-0.6,0.4-0.8,0.9-0.8,1.5s0.3,1.1,0.9,1.4c2.2-0.7,4.6-1.2,7-1.5
			c3.2-0.3,6.7-0.5,10.5-0.5h18.1c2.6,3.7,3.9,8.1,3.9,13.3c0,2.9-0.4,5.7-1.1,8.4c-0.7,2.7-1.8,4.8-3.3,6.4h-48.2
			c-5.3,0-9.6-1.3-12.8-3.9c-3.5-2.7-5.3-6.8-5.3-12.1V44c0-2.1,2.4-3.6,7.1-4.5C283.2,38.5,290.5,38.1,300.4,38.1z"/>
		<path class="st4" d="M378.2,97.7c1.4-0.3,2.1-1,2.1-2.2s-0.4-2.5-1.1-4c-0.8-1.5-1.9-2.9-3.3-4.2c-3.8-3.4-9-5.2-15.5-5.2
			c-3.2,0-6.2,0.5-9,1.6c-3-1.5-5.3-3.9-7.1-7.1c-1.8-3.3-2.6-6.8-2.6-10.6c0-9.9,4.1-17.5,12.4-22.9c7.1-4.6,15.8-6.9,26.2-6.9
			c7.7,0,14.2,0.8,19.5,2.5s9.6,3.8,12.9,6.3c1,2.8,1.5,5.8,1.5,8.8s-0.4,5.8-1.2,8.3c-0.8,2.5-2,4.5-3.5,6
			c-1.5-1.1-4.1-2.2-7.9-3.3c-3.8-1.1-7.3-1.7-10.4-1.7s-5.2,0.2-6.3,0.6c-1.1,0.4-1.6,1-1.6,1.8c0,0.4,0.1,0.8,0.2,1.1
			c1.5-0.4,3.4-0.6,5.8-0.6c8.4,0,15.2,2,20.5,5.9c6.2,4.7,9.3,11.8,9.3,21.2c0,8.3-3.4,15.2-10.1,20.7c-7.3,5.9-17.1,8.8-29.4,8.8
			c-6.8,0-12.7-0.5-17.6-1.5s-9.8-2.8-14.5-5.3c-3.2-4.7-4.8-9.4-4.8-14.3s1.7-8.8,5-12s7.4-4.8,12.2-4.8s8.8,1,11.8,3
			C374.5,90,376.7,93.2,378.2,97.7z"/>
	</g>
	<circle class="st2" cx="-108.4" cy="-177.1" r="34.7"/>
	<g>
		<path class="st3" d="M-108.5-238.6l13.6,11l17.2-2.8l6.2,16.3l16.3,6.2l-2.8,17.2l11,13.5l-11,13.5l2.8,17.2l-16.3,6.2l-6.2,16.3
			l-17.2-2.7l-13.5,11l-13.5-11l-17.2,2.8l-6.2-16.3l-16.4-6.2l2.8-17.2l-11-13.6l11-13.5l-2.8-17.2l16.3-6.2l6.2-16.3l17.2,2.8
			L-108.5-238.6L-108.5-238.6z M-108.5-199.1l6.4,15.5l16.7,1.2l-12.8,10.9l4,16.3l-14.2-8.8l-14.2,8.8l4-16.3l-12.9-10.8l16.7-1.3
			L-108.5-199.1L-108.5-199.1z M-108.5-211.8c19.2,0,34.7,15.5,34.7,34.7s-15.5,34.8-34.7,34.8s-34.7-15.6-34.7-34.8
			S-127.6-211.8-108.5-211.8L-108.5-211.8z"/>
	</g>
</g>
</svg>
